<mxfile host="app.diagrams.net" modified="2020-12-22T15:59:07.606Z" agent="5.0 (Windows NT 10.0; Win64; x64) AppleWebKit/537.36 (KHTML, like Gecko) Chrome/87.0.4280.88 Safari/537.36" etag="6fgTLvRMCFwEsjpanLwL" version="14.1.1" type="github">
  <diagram id="uPB_3FqBe7ohwKinEX9r" name="第 1 页">
    <mxGraphModel dx="1038" dy="524" grid="1" gridSize="10" guides="1" tooltips="1" connect="1" arrows="1" fold="1" page="1" pageScale="1" pageWidth="827" pageHeight="1169" math="0" shadow="0">
      <root>
        <mxCell id="0" />
        <mxCell id="1" parent="0" />
        <mxCell id="jw_jJG0D2olg-dtzpkpx-1" value="" style="rounded=0;whiteSpace=wrap;html=1;" vertex="1" parent="1">
          <mxGeometry x="90" y="40" width="550" height="280" as="geometry" />
        </mxCell>
        <mxCell id="jw_jJG0D2olg-dtzpkpx-2" value="DUT" style="rounded=0;whiteSpace=wrap;html=1;" vertex="1" parent="1">
          <mxGeometry x="294" y="330" width="156" height="50" as="geometry" />
        </mxCell>
        <mxCell id="jw_jJG0D2olg-dtzpkpx-3" value="" style="endArrow=none;html=1;" edge="1" parent="1">
          <mxGeometry width="50" height="50" relative="1" as="geometry">
            <mxPoint x="80" y="355" as="sourcePoint" />
            <mxPoint x="294" y="354.5" as="targetPoint" />
          </mxGeometry>
        </mxCell>
        <mxCell id="jw_jJG0D2olg-dtzpkpx-4" value="" style="endArrow=none;html=1;" edge="1" parent="1">
          <mxGeometry width="50" height="50" relative="1" as="geometry">
            <mxPoint x="450" y="354.5" as="sourcePoint" />
            <mxPoint x="660" y="355" as="targetPoint" />
          </mxGeometry>
        </mxCell>
        <mxCell id="jw_jJG0D2olg-dtzpkpx-5" value="env" style="text;html=1;strokeColor=none;fillColor=none;align=center;verticalAlign=middle;whiteSpace=wrap;rounded=0;" vertex="1" parent="1">
          <mxGeometry x="590" y="50" width="40" height="20" as="geometry" />
        </mxCell>
        <mxCell id="jw_jJG0D2olg-dtzpkpx-6" style="edgeStyle=orthogonalEdgeStyle;rounded=0;orthogonalLoop=1;jettySize=auto;html=1;entryX=0;entryY=0.5;entryDx=0;entryDy=0;" edge="1" parent="1" source="jw_jJG0D2olg-dtzpkpx-7" target="jw_jJG0D2olg-dtzpkpx-8">
          <mxGeometry relative="1" as="geometry" />
        </mxCell>
        <mxCell id="jw_jJG0D2olg-dtzpkpx-7" value="reference model" style="rounded=0;whiteSpace=wrap;html=1;" vertex="1" parent="1">
          <mxGeometry x="132" y="70" width="130" height="40" as="geometry" />
        </mxCell>
        <mxCell id="jw_jJG0D2olg-dtzpkpx-8" value="scoreboard" style="rounded=0;whiteSpace=wrap;html=1;" vertex="1" parent="1">
          <mxGeometry x="400" y="70" width="120" height="40" as="geometry" />
        </mxCell>
        <mxCell id="jw_jJG0D2olg-dtzpkpx-9" style="edgeStyle=orthogonalEdgeStyle;rounded=0;orthogonalLoop=1;jettySize=auto;html=1;entryX=0.5;entryY=1;entryDx=0;entryDy=0;" edge="1" parent="1" source="jw_jJG0D2olg-dtzpkpx-10" target="jw_jJG0D2olg-dtzpkpx-7">
          <mxGeometry relative="1" as="geometry" />
        </mxCell>
        <mxCell id="jw_jJG0D2olg-dtzpkpx-10" value="" style="whiteSpace=wrap;html=1;aspect=fixed;" vertex="1" parent="1">
          <mxGeometry x="125" y="160" width="145" height="145" as="geometry" />
        </mxCell>
        <mxCell id="jw_jJG0D2olg-dtzpkpx-11" style="edgeStyle=orthogonalEdgeStyle;rounded=0;orthogonalLoop=1;jettySize=auto;html=1;entryX=0.5;entryY=1;entryDx=0;entryDy=0;" edge="1" parent="1" source="jw_jJG0D2olg-dtzpkpx-12" target="jw_jJG0D2olg-dtzpkpx-8">
          <mxGeometry relative="1" as="geometry" />
        </mxCell>
        <mxCell id="jw_jJG0D2olg-dtzpkpx-12" value="" style="whiteSpace=wrap;html=1;aspect=fixed;" vertex="1" parent="1">
          <mxGeometry x="387.5" y="160" width="145" height="145" as="geometry" />
        </mxCell>
        <mxCell id="jw_jJG0D2olg-dtzpkpx-13" value="in_agent" style="text;html=1;strokeColor=none;fillColor=none;align=center;verticalAlign=middle;whiteSpace=wrap;rounded=0;" vertex="1" parent="1">
          <mxGeometry x="220" y="170" width="40" height="20" as="geometry" />
        </mxCell>
        <mxCell id="jw_jJG0D2olg-dtzpkpx-14" value="sequencer" style="rounded=0;whiteSpace=wrap;html=1;" vertex="1" parent="1">
          <mxGeometry x="135" y="190" width="95" height="30" as="geometry" />
        </mxCell>
        <mxCell id="jw_jJG0D2olg-dtzpkpx-15" style="edgeStyle=orthogonalEdgeStyle;rounded=0;orthogonalLoop=1;jettySize=auto;html=1;" edge="1" parent="1" source="jw_jJG0D2olg-dtzpkpx-16">
          <mxGeometry relative="1" as="geometry">
            <mxPoint x="164" y="350" as="targetPoint" />
          </mxGeometry>
        </mxCell>
        <UserObject label="driver" link="https://app.diagrams.net/#Hghr12345%2Ffirsttest%2Fmaster%2F%E5%AF%84%E5%AD%98%E5%99%A8%E8%AF%BB%E5%86%99%E9%AA%8C%E8%AF%81.drawio" id="jw_jJG0D2olg-dtzpkpx-16">
          <mxCell style="rounded=0;whiteSpace=wrap;html=1;" vertex="1" parent="1">
            <mxGeometry x="138" y="250" width="52" height="40" as="geometry" />
          </mxCell>
        </UserObject>
        <mxCell id="jw_jJG0D2olg-dtzpkpx-17" value="monitor" style="rounded=0;whiteSpace=wrap;html=1;" vertex="1" parent="1">
          <mxGeometry x="200" y="250" width="52" height="40" as="geometry" />
        </mxCell>
        <mxCell id="jw_jJG0D2olg-dtzpkpx-18" value="monitor" style="rounded=0;whiteSpace=wrap;html=1;" vertex="1" parent="1">
          <mxGeometry x="468" y="254" width="52" height="40" as="geometry" />
        </mxCell>
        <mxCell id="jw_jJG0D2olg-dtzpkpx-19" value="out_agent" style="text;html=1;strokeColor=none;fillColor=none;align=center;verticalAlign=middle;whiteSpace=wrap;rounded=0;" vertex="1" parent="1">
          <mxGeometry x="480" y="180" width="40" height="20" as="geometry" />
        </mxCell>
        <mxCell id="jw_jJG0D2olg-dtzpkpx-20" value="" style="endArrow=classic;html=1;" edge="1" parent="1">
          <mxGeometry width="50" height="50" relative="1" as="geometry">
            <mxPoint x="226" y="350" as="sourcePoint" />
            <mxPoint x="225.5" y="290" as="targetPoint" />
          </mxGeometry>
        </mxCell>
        <mxCell id="jw_jJG0D2olg-dtzpkpx-21" value="" style="endArrow=classic;html=1;" edge="1" parent="1">
          <mxGeometry width="50" height="50" relative="1" as="geometry">
            <mxPoint x="494" y="353" as="sourcePoint" />
            <mxPoint x="493.5" y="293" as="targetPoint" />
          </mxGeometry>
        </mxCell>
        <mxCell id="jw_jJG0D2olg-dtzpkpx-22" style="edgeStyle=orthogonalEdgeStyle;rounded=0;orthogonalLoop=1;jettySize=auto;html=1;entryX=0.5;entryY=0;entryDx=0;entryDy=0;" edge="1" parent="1" source="jw_jJG0D2olg-dtzpkpx-23" target="jw_jJG0D2olg-dtzpkpx-24">
          <mxGeometry relative="1" as="geometry" />
        </mxCell>
        <mxCell id="jw_jJG0D2olg-dtzpkpx-23" value="UVM_TEST_TOP&lt;br&gt;（base_test）" style="rounded=0;whiteSpace=wrap;html=1;" vertex="1" parent="1">
          <mxGeometry x="305" y="460" width="120" height="60" as="geometry" />
        </mxCell>
        <mxCell id="jw_jJG0D2olg-dtzpkpx-24" value="env&lt;br&gt;（my_env）" style="rounded=0;whiteSpace=wrap;html=1;" vertex="1" parent="1">
          <mxGeometry x="305" y="570" width="120" height="60" as="geometry" />
        </mxCell>
        <mxCell id="jw_jJG0D2olg-dtzpkpx-25" value="i_agent&lt;br&gt;(my_agent)" style="rounded=0;whiteSpace=wrap;html=1;" vertex="1" parent="1">
          <mxGeometry x="80" y="700" width="120" height="60" as="geometry" />
        </mxCell>
        <mxCell id="jw_jJG0D2olg-dtzpkpx-26" value="mdl&lt;br&gt;（my_model）" style="rounded=0;whiteSpace=wrap;html=1;" vertex="1" parent="1">
          <mxGeometry x="240" y="700" width="120" height="60" as="geometry" />
        </mxCell>
        <mxCell id="jw_jJG0D2olg-dtzpkpx-27" value="scb&lt;br&gt;（my_scoreboard）" style="rounded=0;whiteSpace=wrap;html=1;" vertex="1" parent="1">
          <mxGeometry x="400" y="700" width="120" height="60" as="geometry" />
        </mxCell>
        <mxCell id="jw_jJG0D2olg-dtzpkpx-28" value="o_agent&lt;br&gt;（my_agent）" style="rounded=0;whiteSpace=wrap;html=1;" vertex="1" parent="1">
          <mxGeometry x="560" y="700" width="120" height="60" as="geometry" />
        </mxCell>
        <mxCell id="jw_jJG0D2olg-dtzpkpx-29" value="" style="endArrow=classic;html=1;entryX=0.5;entryY=0;entryDx=0;entryDy=0;" edge="1" parent="1" target="jw_jJG0D2olg-dtzpkpx-25">
          <mxGeometry width="50" height="50" relative="1" as="geometry">
            <mxPoint x="360" y="630" as="sourcePoint" />
            <mxPoint x="290" y="675" as="targetPoint" />
          </mxGeometry>
        </mxCell>
        <mxCell id="jw_jJG0D2olg-dtzpkpx-30" value="" style="endArrow=classic;html=1;entryX=0.5;entryY=0;entryDx=0;entryDy=0;" edge="1" parent="1" target="jw_jJG0D2olg-dtzpkpx-26">
          <mxGeometry width="50" height="50" relative="1" as="geometry">
            <mxPoint x="360" y="630" as="sourcePoint" />
            <mxPoint x="305" y="670" as="targetPoint" />
          </mxGeometry>
        </mxCell>
        <mxCell id="jw_jJG0D2olg-dtzpkpx-31" value="" style="endArrow=classic;html=1;entryX=0.5;entryY=0;entryDx=0;entryDy=0;" edge="1" parent="1" target="jw_jJG0D2olg-dtzpkpx-27">
          <mxGeometry width="50" height="50" relative="1" as="geometry">
            <mxPoint x="362.5" y="630" as="sourcePoint" />
            <mxPoint x="387.5" y="700" as="targetPoint" />
          </mxGeometry>
        </mxCell>
        <mxCell id="jw_jJG0D2olg-dtzpkpx-32" value="" style="endArrow=classic;html=1;entryX=0.5;entryY=0;entryDx=0;entryDy=0;" edge="1" parent="1" target="jw_jJG0D2olg-dtzpkpx-28">
          <mxGeometry width="50" height="50" relative="1" as="geometry">
            <mxPoint x="360" y="630" as="sourcePoint" />
            <mxPoint x="440" y="680" as="targetPoint" />
          </mxGeometry>
        </mxCell>
        <mxCell id="jw_jJG0D2olg-dtzpkpx-33" value="sqr&lt;br&gt;(my_squencer)" style="rounded=0;whiteSpace=wrap;html=1;" vertex="1" parent="1">
          <mxGeometry x="30" y="840" width="80" height="60" as="geometry" />
        </mxCell>
        <mxCell id="jw_jJG0D2olg-dtzpkpx-34" value="drv&lt;br&gt;(my_driver)" style="rounded=0;whiteSpace=wrap;html=1;" vertex="1" parent="1">
          <mxGeometry x="135" y="840" width="80" height="60" as="geometry" />
        </mxCell>
        <mxCell id="jw_jJG0D2olg-dtzpkpx-35" value="mon&lt;br&gt;(my_monitor)" style="rounded=0;whiteSpace=wrap;html=1;" vertex="1" parent="1">
          <mxGeometry x="240" y="840" width="80" height="60" as="geometry" />
        </mxCell>
        <mxCell id="jw_jJG0D2olg-dtzpkpx-36" value="" style="endArrow=classic;html=1;entryX=0.5;entryY=0;entryDx=0;entryDy=0;" edge="1" parent="1" target="jw_jJG0D2olg-dtzpkpx-33">
          <mxGeometry width="50" height="50" relative="1" as="geometry">
            <mxPoint x="135" y="760" as="sourcePoint" />
            <mxPoint x="155" y="830" as="targetPoint" />
          </mxGeometry>
        </mxCell>
        <mxCell id="jw_jJG0D2olg-dtzpkpx-37" value="" style="endArrow=classic;html=1;entryX=0.5;entryY=0;entryDx=0;entryDy=0;" edge="1" parent="1" target="jw_jJG0D2olg-dtzpkpx-34">
          <mxGeometry width="50" height="50" relative="1" as="geometry">
            <mxPoint x="135" y="760" as="sourcePoint" />
            <mxPoint x="165" y="830" as="targetPoint" />
          </mxGeometry>
        </mxCell>
        <mxCell id="jw_jJG0D2olg-dtzpkpx-38" value="" style="endArrow=classic;html=1;entryX=0.395;entryY=-0.083;entryDx=0;entryDy=0;entryPerimeter=0;" edge="1" parent="1" target="jw_jJG0D2olg-dtzpkpx-35">
          <mxGeometry width="50" height="50" relative="1" as="geometry">
            <mxPoint x="135" y="760" as="sourcePoint" />
            <mxPoint x="175" y="830" as="targetPoint" />
          </mxGeometry>
        </mxCell>
        <mxCell id="jw_jJG0D2olg-dtzpkpx-39" value="mon&lt;br&gt;(my_monitor)" style="rounded=0;whiteSpace=wrap;html=1;" vertex="1" parent="1">
          <mxGeometry x="600" y="840" width="80" height="60" as="geometry" />
        </mxCell>
        <mxCell id="jw_jJG0D2olg-dtzpkpx-40" value="" style="endArrow=classic;html=1;entryX=0.5;entryY=0;entryDx=0;entryDy=0;" edge="1" parent="1" target="jw_jJG0D2olg-dtzpkpx-39">
          <mxGeometry width="50" height="50" relative="1" as="geometry">
            <mxPoint x="620" y="760" as="sourcePoint" />
            <mxPoint x="670" y="870" as="targetPoint" />
          </mxGeometry>
        </mxCell>
        <mxCell id="jw_jJG0D2olg-dtzpkpx-41" value="加入base_test后的UVM树" style="text;html=1;strokeColor=none;fillColor=none;align=center;verticalAlign=middle;whiteSpace=wrap;rounded=0;fontSize=18;fontStyle=1" vertex="1" parent="1">
          <mxGeometry x="217" y="930" width="360" height="20" as="geometry" />
        </mxCell>
        <mxCell id="jw_jJG0D2olg-dtzpkpx-42" style="edgeStyle=orthogonalEdgeStyle;rounded=0;orthogonalLoop=1;jettySize=auto;html=1;entryX=0.5;entryY=0;entryDx=0;entryDy=0;" edge="1" parent="1" source="jw_jJG0D2olg-dtzpkpx-43" target="jw_jJG0D2olg-dtzpkpx-44">
          <mxGeometry relative="1" as="geometry" />
        </mxCell>
        <UserObject label="UVM_TEST_TOP&lt;br&gt;（my_casen）" link="https://app.diagrams.net/#Hghr12345%2Ffirsttest%2Fmaster%2FUVM%E6%9E%B6%E6%9E%84%E6%80%BB%E7%BB%93%2F%E6%9C%80%E7%BB%88%E7%9A%84top_tb.drawio" id="jw_jJG0D2olg-dtzpkpx-43">
          <mxCell style="rounded=0;whiteSpace=wrap;html=1;" vertex="1" parent="1">
            <mxGeometry x="322" y="1010" width="120" height="60" as="geometry" />
          </mxCell>
        </UserObject>
        <UserObject label="env&lt;br&gt;（my_env）" link="https://app.diagrams.net/#Hghr12345%2Ffirsttest%2Fmaster%2FENV.drawio" id="jw_jJG0D2olg-dtzpkpx-44">
          <mxCell style="rounded=0;whiteSpace=wrap;html=1;" vertex="1" parent="1">
            <mxGeometry x="322" y="1120" width="120" height="60" as="geometry" />
          </mxCell>
        </UserObject>
        <mxCell id="jw_jJG0D2olg-dtzpkpx-45" value="i_agent&lt;br&gt;(my_agent)" style="rounded=0;whiteSpace=wrap;html=1;" vertex="1" parent="1">
          <mxGeometry x="97" y="1250" width="120" height="60" as="geometry" />
        </mxCell>
        <mxCell id="jw_jJG0D2olg-dtzpkpx-46" value="mdl&lt;br&gt;（my_model）" style="rounded=0;whiteSpace=wrap;html=1;" vertex="1" parent="1">
          <mxGeometry x="257" y="1250" width="120" height="60" as="geometry" />
        </mxCell>
        <mxCell id="jw_jJG0D2olg-dtzpkpx-47" value="scb&lt;br&gt;（my_scoreboard）" style="rounded=0;whiteSpace=wrap;html=1;" vertex="1" parent="1">
          <mxGeometry x="417" y="1250" width="120" height="60" as="geometry" />
        </mxCell>
        <mxCell id="jw_jJG0D2olg-dtzpkpx-48" value="o_agent&lt;br&gt;（my_agent）" style="rounded=0;whiteSpace=wrap;html=1;" vertex="1" parent="1">
          <mxGeometry x="577" y="1250" width="120" height="60" as="geometry" />
        </mxCell>
        <mxCell id="jw_jJG0D2olg-dtzpkpx-49" value="" style="endArrow=classic;html=1;entryX=0.5;entryY=0;entryDx=0;entryDy=0;" edge="1" parent="1" target="jw_jJG0D2olg-dtzpkpx-45">
          <mxGeometry width="50" height="50" relative="1" as="geometry">
            <mxPoint x="377" y="1180" as="sourcePoint" />
            <mxPoint x="307" y="1225" as="targetPoint" />
          </mxGeometry>
        </mxCell>
        <mxCell id="jw_jJG0D2olg-dtzpkpx-50" value="" style="endArrow=classic;html=1;entryX=0.5;entryY=0;entryDx=0;entryDy=0;" edge="1" parent="1" target="jw_jJG0D2olg-dtzpkpx-46">
          <mxGeometry width="50" height="50" relative="1" as="geometry">
            <mxPoint x="377" y="1180" as="sourcePoint" />
            <mxPoint x="322" y="1220" as="targetPoint" />
          </mxGeometry>
        </mxCell>
        <mxCell id="jw_jJG0D2olg-dtzpkpx-51" value="" style="endArrow=classic;html=1;entryX=0.5;entryY=0;entryDx=0;entryDy=0;" edge="1" parent="1" target="jw_jJG0D2olg-dtzpkpx-47">
          <mxGeometry width="50" height="50" relative="1" as="geometry">
            <mxPoint x="379.5" y="1180" as="sourcePoint" />
            <mxPoint x="404.5" y="1250" as="targetPoint" />
          </mxGeometry>
        </mxCell>
        <mxCell id="jw_jJG0D2olg-dtzpkpx-52" value="" style="endArrow=classic;html=1;entryX=0.5;entryY=0;entryDx=0;entryDy=0;" edge="1" parent="1" target="jw_jJG0D2olg-dtzpkpx-48">
          <mxGeometry width="50" height="50" relative="1" as="geometry">
            <mxPoint x="377" y="1180" as="sourcePoint" />
            <mxPoint x="457" y="1230" as="targetPoint" />
          </mxGeometry>
        </mxCell>
        <mxCell id="jw_jJG0D2olg-dtzpkpx-53" value="sqr&lt;br&gt;(my_squencer)" style="rounded=0;whiteSpace=wrap;html=1;" vertex="1" parent="1">
          <mxGeometry x="47" y="1390" width="80" height="60" as="geometry" />
        </mxCell>
        <mxCell id="jw_jJG0D2olg-dtzpkpx-54" value="drv&lt;br&gt;(my_driver)" style="rounded=0;whiteSpace=wrap;html=1;" vertex="1" parent="1">
          <mxGeometry x="152" y="1390" width="80" height="60" as="geometry" />
        </mxCell>
        <mxCell id="jw_jJG0D2olg-dtzpkpx-55" value="mon&lt;br&gt;(my_monitor)" style="rounded=0;whiteSpace=wrap;html=1;" vertex="1" parent="1">
          <mxGeometry x="257" y="1390" width="80" height="60" as="geometry" />
        </mxCell>
        <mxCell id="jw_jJG0D2olg-dtzpkpx-56" value="" style="endArrow=classic;html=1;entryX=0.5;entryY=0;entryDx=0;entryDy=0;" edge="1" parent="1" target="jw_jJG0D2olg-dtzpkpx-53">
          <mxGeometry width="50" height="50" relative="1" as="geometry">
            <mxPoint x="152" y="1310" as="sourcePoint" />
            <mxPoint x="172" y="1380" as="targetPoint" />
          </mxGeometry>
        </mxCell>
        <mxCell id="jw_jJG0D2olg-dtzpkpx-57" value="" style="endArrow=classic;html=1;entryX=0.5;entryY=0;entryDx=0;entryDy=0;" edge="1" parent="1" target="jw_jJG0D2olg-dtzpkpx-54">
          <mxGeometry width="50" height="50" relative="1" as="geometry">
            <mxPoint x="152" y="1310" as="sourcePoint" />
            <mxPoint x="182" y="1380" as="targetPoint" />
          </mxGeometry>
        </mxCell>
        <mxCell id="jw_jJG0D2olg-dtzpkpx-58" value="" style="endArrow=classic;html=1;entryX=0.395;entryY=-0.083;entryDx=0;entryDy=0;entryPerimeter=0;" edge="1" parent="1" target="jw_jJG0D2olg-dtzpkpx-55">
          <mxGeometry width="50" height="50" relative="1" as="geometry">
            <mxPoint x="152" y="1310" as="sourcePoint" />
            <mxPoint x="192" y="1380" as="targetPoint" />
          </mxGeometry>
        </mxCell>
        <mxCell id="jw_jJG0D2olg-dtzpkpx-59" value="mon&lt;br&gt;(my_monitor)" style="rounded=0;whiteSpace=wrap;html=1;" vertex="1" parent="1">
          <mxGeometry x="597" y="1390" width="80" height="60" as="geometry" />
        </mxCell>
        <mxCell id="jw_jJG0D2olg-dtzpkpx-60" value="" style="endArrow=classic;html=1;entryX=0.5;entryY=0;entryDx=0;entryDy=0;" edge="1" parent="1" target="jw_jJG0D2olg-dtzpkpx-59">
          <mxGeometry width="50" height="50" relative="1" as="geometry">
            <mxPoint x="637" y="1310" as="sourcePoint" />
            <mxPoint x="687" y="1420" as="targetPoint" />
          </mxGeometry>
        </mxCell>
        <mxCell id="jw_jJG0D2olg-dtzpkpx-61" value="启动后的UVM树" style="text;html=1;strokeColor=none;fillColor=none;align=center;verticalAlign=middle;whiteSpace=wrap;rounded=0;fontSize=18;fontStyle=1" vertex="1" parent="1">
          <mxGeometry x="220" y="1470" width="360" height="20" as="geometry" />
        </mxCell>
        <mxCell id="jw_jJG0D2olg-dtzpkpx-62" style="edgeStyle=orthogonalEdgeStyle;rounded=0;orthogonalLoop=1;jettySize=auto;html=1;entryX=0.5;entryY=0;entryDx=0;entryDy=0;fontSize=15;" edge="1" parent="1" source="jw_jJG0D2olg-dtzpkpx-63" target="jw_jJG0D2olg-dtzpkpx-65">
          <mxGeometry relative="1" as="geometry" />
        </mxCell>
        <mxCell id="jw_jJG0D2olg-dtzpkpx-63" value="module top_db" style="rounded=0;whiteSpace=wrap;html=1;fontSize=15;" vertex="1" parent="1">
          <mxGeometry x="760" y="460" width="140" height="60" as="geometry" />
        </mxCell>
        <mxCell id="jw_jJG0D2olg-dtzpkpx-64" style="edgeStyle=orthogonalEdgeStyle;rounded=0;orthogonalLoop=1;jettySize=auto;html=1;entryX=0.5;entryY=0;entryDx=0;entryDy=0;fontSize=15;" edge="1" parent="1" source="jw_jJG0D2olg-dtzpkpx-65" target="jw_jJG0D2olg-dtzpkpx-67">
          <mxGeometry relative="1" as="geometry" />
        </mxCell>
        <mxCell id="jw_jJG0D2olg-dtzpkpx-65" value="全局的run_te&lt;span style=&quot;color: rgba(0 , 0 , 0 , 0) ; font-family: monospace ; font-size: 0px&quot;&gt;mxGraphModel%3E%3Croot%3E%3CmxCell%20id%3D%220%22%2F%3E%3CmxCell%20id%3D%221%22%20parent%3D%220%22%2F%3E%3CmxCell%20id%3D%222%22%20value%3D%22module%20top_db%22%20style%3D%22rounded%3D0%3BwhiteSpace%3Dwrap%3Bhtml%3D1%3BfontSize%3D15%3B%22%20vertex%3D%221%22%20parent%3D%221%22%3E%3CmxGeometry%20x%3D%22760%22%20y%3D%22460%22%20width%3D%22140%22%20height%3D%2260%22%20as%3D%22geometry%22%2F%3E%3C%2FmxCell%3E%3C%2Froot%3E%3C%2FmxGraphModel%3E&lt;/span&gt;st" style="rounded=0;whiteSpace=wrap;html=1;fontSize=15;" vertex="1" parent="1">
          <mxGeometry x="760" y="570" width="140" height="60" as="geometry" />
        </mxCell>
        <mxCell id="jw_jJG0D2olg-dtzpkpx-66" style="edgeStyle=orthogonalEdgeStyle;rounded=0;orthogonalLoop=1;jettySize=auto;html=1;entryX=0.5;entryY=0;entryDx=0;entryDy=0;fontSize=15;" edge="1" parent="1" source="jw_jJG0D2olg-dtzpkpx-67" target="jw_jJG0D2olg-dtzpkpx-69">
          <mxGeometry relative="1" as="geometry" />
        </mxCell>
        <mxCell id="jw_jJG0D2olg-dtzpkpx-67" value="启动验证平台" style="rounded=0;whiteSpace=wrap;html=1;fontSize=15;" vertex="1" parent="1">
          <mxGeometry x="760" y="680" width="140" height="60" as="geometry" />
        </mxCell>
        <mxCell id="jw_jJG0D2olg-dtzpkpx-68" style="edgeStyle=orthogonalEdgeStyle;rounded=0;orthogonalLoop=1;jettySize=auto;html=1;entryX=0.5;entryY=0;entryDx=0;entryDy=0;fontSize=15;" edge="1" parent="1" source="jw_jJG0D2olg-dtzpkpx-69" target="jw_jJG0D2olg-dtzpkpx-71">
          <mxGeometry relative="1" as="geometry" />
        </mxCell>
        <mxCell id="jw_jJG0D2olg-dtzpkpx-69" value="根据UVM TESTNAME产生my_case0的实例" style="rounded=0;whiteSpace=wrap;html=1;fontSize=15;" vertex="1" parent="1">
          <mxGeometry x="730" y="780" width="200" height="60" as="geometry" />
        </mxCell>
        <mxCell id="jw_jJG0D2olg-dtzpkpx-70" style="edgeStyle=orthogonalEdgeStyle;rounded=0;orthogonalLoop=1;jettySize=auto;html=1;entryX=0.5;entryY=0;entryDx=0;entryDy=0;fontSize=15;" edge="1" parent="1" source="jw_jJG0D2olg-dtzpkpx-71" target="jw_jJG0D2olg-dtzpkpx-73">
          <mxGeometry relative="1" as="geometry" />
        </mxCell>
        <mxCell id="jw_jJG0D2olg-dtzpkpx-71" value="依次执行build_phase建立完整的UVM树" style="rounded=0;whiteSpace=wrap;html=1;fontSize=15;" vertex="1" parent="1">
          <mxGeometry x="760" y="880" width="140" height="60" as="geometry" />
        </mxCell>
        <mxCell id="jw_jJG0D2olg-dtzpkpx-72" style="edgeStyle=orthogonalEdgeStyle;rounded=0;orthogonalLoop=1;jettySize=auto;html=1;entryX=0.5;entryY=0;entryDx=0;entryDy=0;fontSize=15;" edge="1" parent="1" source="jw_jJG0D2olg-dtzpkpx-73" target="jw_jJG0D2olg-dtzpkpx-75">
          <mxGeometry relative="1" as="geometry" />
        </mxCell>
        <mxCell id="jw_jJG0D2olg-dtzpkpx-73" value="启动验证平台" style="rounded=0;whiteSpace=wrap;html=1;fontSize=15;" vertex="1" parent="1">
          <mxGeometry x="760" y="980" width="140" height="60" as="geometry" />
        </mxCell>
        <mxCell id="jw_jJG0D2olg-dtzpkpx-74" style="edgeStyle=orthogonalEdgeStyle;rounded=0;orthogonalLoop=1;jettySize=auto;html=1;entryX=0.5;entryY=0;entryDx=0;entryDy=0;fontSize=15;" edge="1" parent="1" source="jw_jJG0D2olg-dtzpkpx-75" target="jw_jJG0D2olg-dtzpkpx-76">
          <mxGeometry relative="1" as="geometry" />
        </mxCell>
        <mxCell id="jw_jJG0D2olg-dtzpkpx-75" value="顺序执行UVM树各点的connect phase和main phase等&lt;span style=&quot;color: rgba(0 , 0 , 0 , 0) ; font-family: monospace ; font-size: 0px&quot;&gt;%3CmxGraphModel%3E%3Croot%3E%3CmxCell%20id%3D%220%22%2F%3E%3CmxCell%20id%3D%221%22%20parent%3D%220%22%2F%3E%3CmxCell%20id%3D%222%22%20value%3D%22%E5%90%AF%E5%8A%A8%E9%AA%8C%E8%AF%81%E5%B9%B3%E5%8F%B0%22%20style%3D%22rounded%3D0%3BwhiteSpace%3Dwrap%3Bhtml%3D1%3BfontSize%3D15%3B%22%20vertex%3D%221%22%20parent%3D%221%22%3E%3CmxGeometry%20x%3D%22760%22%20y%3D%22980%22%20width%3D%22140%22%20height%3D%2260%22%20as%3D%22geometry%22%2F%3E%3C%2FmxCell%3E%3C%2Froot%3E%3C%2FmxGraphModel%3E&lt;/span&gt;" style="rounded=0;whiteSpace=wrap;html=1;fontSize=15;" vertex="1" parent="1">
          <mxGeometry x="760" y="1080" width="140" height="60" as="geometry" />
        </mxCell>
        <mxCell id="jw_jJG0D2olg-dtzpkpx-76" value="所有phase执行完毕，结束仿真" style="rounded=0;whiteSpace=wrap;html=1;fontSize=15;" vertex="1" parent="1">
          <mxGeometry x="760" y="1180" width="140" height="60" as="geometry" />
        </mxCell>
      </root>
    </mxGraphModel>
  </diagram>
</mxfile>
